<svg version="1.1" id="Capa_1" xmlns="http://www.w3.org/2000/svg" xmlns:xlink="http://www.w3.org/1999/xlink" x="0px" y="0px"	width="20px" height="20px" viewBox="0 0 482.496 482.496" fill="#6c6c6c" style="enable-background:new 0 0 482.496 482.496;"	xml:space="preserve"><g><path d="M465.725,174.758c-1.853-4.834-6.493-8.026-11.672-8.026h-26.768l-34.321-80.676c-1.962-4.612-6.49-7.606-11.502-7.606	h-37.824c-0.192-0.005-0.386-0.005-0.58,0h-203.62c-0.194-0.005-0.387-0.005-0.58,0h-37.824c-5.012,0-9.54,2.994-11.502,7.606	l-34.321,80.676H28.443c-5.178,0-9.819,3.192-11.672,8.026L0.828,216.356c-1.473,3.843-0.96,8.165,1.372,11.556	c2.332,3.392,6.184,5.417,10.3,5.417h0.748l-9,40.756c-0.327,1.482-0.382,3.012-0.161,4.512l9.951,67.733	c0.901,6.136,6.166,10.683,12.367,10.683h4.67v34.536c0,6.903,5.596,12.5,12.5,12.5h74.934c6.904,0,12.5-5.597,12.5-12.5v-34.534	h220.478v34.534c0,6.903,5.596,12.5,12.5,12.5h74.935c6.904,0,12.5-5.597,12.5-12.5v-34.534h4.669	c6.202,0,11.466-4.547,12.367-10.683l9.951-67.733c0.221-1.5,0.166-3.029-0.161-4.512l-9-40.756h0.748	c4.116,0,7.968-2.026,10.3-5.417s2.845-7.713,1.372-11.556L465.725,174.758z M148.043,103.45h186.41l26.049,75.087H121.994	L148.043,103.45z M445.293,332.015h-6.372c-6.903,0-12.5,5.598-12.5,12.5v34.534h-49.935v-34.534c0-6.902-5.597-12.5-12.5-12.5	H118.509c-6.904,0-12.5,5.598-12.5,12.5v34.534H56.075v-34.534c0-6.902-5.596-12.5-12.5-12.5h-6.372l-8.048-54.779l11.204-50.739	l32.689-39.225c0.007-0.009,0.015-0.018,0.022-0.027l0.009-0.011c0.006-0.007,0.011-0.015,0.017-0.023	c0.233-0.281,0.451-0.575,0.66-0.877c0.066-0.096,0.13-0.193,0.194-0.291c0.145-0.223,0.281-0.45,0.413-0.683	c0.061-0.107,0.124-0.213,0.182-0.322c0.155-0.297,0.302-0.601,0.435-0.913L75,184.08c0.015-0.035,0.03-0.07,0.044-0.105	l34.258-80.525h12.28l-28.964,83.49c-1.326,3.822-0.72,8.048,1.625,11.344c2.345,3.296,6.14,5.253,10.185,5.253h273.644	c4.045,0,7.84-1.957,10.185-5.253s2.95-7.522,1.625-11.344l-28.964-83.49h12.28l34.258,80.525c0.014,0.035,0.03,0.07,0.044,0.105	l0.021,0.045c0.133,0.312,0.279,0.615,0.435,0.913c0.058,0.108,0.121,0.214,0.182,0.322c0.131,0.233,0.269,0.46,0.413,0.683	c0.064,0.098,0.127,0.195,0.194,0.291c0.209,0.302,0.427,0.597,0.66,0.877c0.006,0.008,0.011,0.016,0.017,0.023l0.009,0.011	c0.009,0.009,0.016,0.018,0.022,0.027l32.688,39.224l11.204,50.74L445.293,332.015z M163.338,284.25v13	c0,6.902-5.597,12.5-12.5,12.5c-6.903,0-12.5-5.598-12.5-12.5v-0.5h-51v0.5c0,6.902-5.597,12.5-12.5,12.5	c-6.903,0-12.5-5.598-12.5-12.5v-13c0-6.902,5.597-12.5,12.5-12.5h76C157.741,271.75,163.338,277.347,163.338,284.25z		M420.158,284.25v13c0,6.902-5.598,12.5-12.5,12.5c-6.903,0-12.5-5.598-12.5-12.5v-0.5h-51v0.5c0,6.902-5.598,12.5-12.5,12.5	c-6.903,0-12.5-5.598-12.5-12.5v-13c0-6.902,5.597-12.5,12.5-12.5h76C414.561,271.75,420.158,277.347,420.158,284.25z"/></g></svg>
