<svg version="1.1" id="Layer_1" xmlns="http://www.w3.org/2000/svg" xmlns:xlink="http://www.w3.org/1999/xlink" x="0px" y="0px"	viewBox="0 0 512 512" style="enable-background:new 0 0 512 512;" xml:space="preserve"><g><g>	<path d="M450.549,225.796L335.488,37.031c-2.32-3.807-6.458-6.13-10.917-6.13h-55.754V12.785c0-7.06-5.724-12.785-12.785-12.785		c-7.061,0-12.785,5.725-12.785,12.785V30.9H187.43c-4.459,0-8.596,2.323-10.917,6.13L61.451,225.796		c-2.406,3.947-2.494,8.884-0.231,12.914c2.264,4.03,6.525,6.525,11.147,6.525h170.854v69.464		c-15.56,5.341-26.784,20.118-26.784,37.467v134.264h-29.021c-7.061,0-12.785,5.724-12.785,12.785S180.355,512,187.416,512h137.231		c7.061,0,12.785-5.724,12.785-12.785s-5.724-12.785-12.785-12.785h-29.021V352.166c0-10.568-4.113-20.512-11.607-28.024		c-4.362-4.351-9.558-7.552-15.229-9.476v-69.431h81.847v53.593c0,7.061,5.724,12.785,12.785,12.785s12.785-5.724,12.785-12.785		v-53.593h63.425c4.622,0,8.884-2.494,11.147-6.525C453.044,234.682,452.956,229.743,450.549,225.796z M270.06,352.166v134.265		h-0.001h-28.05V352.166c0-7.733,6.285-14.031,14.025-14.038c3.742,0,7.269,1.463,9.908,4.094		C268.597,344.884,270.06,348.416,270.06,352.166z M95.135,219.666L194.611,56.47h122.781l99.476,163.196H95.135z"/></g></g><g><g>	<path d="M363.425,321.521c-7.061,0-12.785,5.724-12.785,12.785v5.433c0,7.061,5.724,12.785,12.785,12.785		s12.785-5.724,12.785-12.785v-5.433C376.209,327.245,370.486,321.521,363.425,321.521z"/></g></g></svg>
