<svg version="1.1" id="Layer_1" xmlns="http://www.w3.org/2000/svg" xmlns:xlink="http://www.w3.org/1999/xlink" x="0px" y="0px"
	 viewBox="0 0 511.999 511.999" width="20px" fill="#6C6C6C" style="enable-background:new 0 0 511.999 511.999;" xml:space="preserve">
<g>
	<g>
		<path d="M399.879,248.281c-12.314,13.152-20.786,31.914-25.258,55.86c-6.592-3.06-13.926-4.78-21.658-4.78h-80.264v-28.535h51.562
			c19.124,0,37.392-8.186,50.121-22.458s18.779-33.355,16.598-52.354L375.325,59.502C371.432,25.581,342.748,0,308.604,0H203.4
			c-34.144,0-62.828,25.581-66.721,59.502l-15.66,136.513c-2.18,18.999,3.87,38.08,16.598,52.354s30.998,22.458,50.121,22.458
			h51.562v28.534h-80.265v-0.001c-7.732,0-15.066,1.72-21.658,4.78c-4.472-23.946-12.944-42.707-25.258-55.86
			c-12.972-13.856-30.287-21.179-50.077-21.179v33.404c10.736,0,18.889,3.358,25.655,10.567
			c18.984,20.224,20.612,64.636,19.637,80.043l0.072,0.004v2.277c0,28.467,23.16,51.627,51.627,51.627h80.264v44.086
			c-26.687,5.433-49.383,23.68-60.239,49.548l30.801,12.926c5.587-13.314,16.389-23.267,29.438-27.892v28.307h33.404v-28.307
			c13.049,4.626,23.85,14.579,29.438,27.892l30.801-12.926c-10.856-25.868-33.552-44.116-60.239-49.548v-44.086h80.264
			c28.467,0,51.627-23.16,51.627-51.627v-2.276l0.072-0.004c-0.975-15.407,0.652-59.82,19.637-80.043
			c6.766-7.21,14.919-10.567,25.655-10.567v-33.404C430.167,227.102,412.851,234.426,399.879,248.281z M187.738,237.424
			c-9.752-0.001-18.698-4.01-25.191-11.288c-6.492-7.279-9.453-16.624-8.342-26.312l15.66-136.513
			c1.957-17.049,16.373-29.906,33.535-29.906h105.204c17.162,0,31.578,12.857,33.534,29.906l15.66,136.513
			c1.111,9.688-1.851,19.034-8.342,26.312s-15.438,11.288-25.191,11.288H187.738z M371.19,353.397
			c0,10.048-8.175,18.223-18.223,18.223H159.036c-10.048,0-18.223-8.175-18.223-18.223v-2.408c0-10.048,8.175-18.223,18.223-18.223
			h193.931c10.048-0.001,18.223,8.174,18.223,18.223V353.397z"/>
	</g>
</g>
</svg>
