<?xml version="1.0" encoding="iso-8859-1"?>
<!-- Generator: Adobe Illustrator 19.0.0, SVG Export Plug-In . SVG Version: 6.00 Build 0)  -->
<svg version="1.1" id="Layer_1" xmlns="http://www.w3.org/2000/svg" xmlns:xlink="http://www.w3.org/1999/xlink" x="0px" y="0px"
	 viewBox="0 0 512 512" width="20px" fill="#6C6C6C" style="enable-background:new 0 0 512 512;" xml:space="preserve">
<g transform="translate(1 1)">
	<g>
		<g>
			<path d="M254.934,459.8c18.773,0,34.133-15.36,34.133-34.133s-15.36-34.133-34.133-34.133c-18.773,0-34.133,15.36-34.133,34.133
				S236.161,459.8,254.934,459.8z M254.934,408.6c9.387,0,17.067,7.68,17.067,17.067s-7.68,17.067-17.067,17.067
				s-17.067-7.68-17.067-17.067S245.547,408.6,254.934,408.6z"/>
			<path d="M508.374,13.507c2.56-2.56,3.413-5.973,1.707-9.387c-0.853-3.413-4.267-5.12-7.68-5.12h-6.827
				c-34.133,0-67.413,18.773-82.773,46.08c-0.853,1.707-1.707,2.56-2.56,4.267c-5.973-18.773-14.507-31.573-24.747-40.96
				C377.814,2.413,369.281-1,359.894-1H20.267C12.587-1,5.76,3.267,2.347,9.24c-4.267,6.827-4.267,15.36-0.853,22.187
				c9.512,16.647,13.868,42.137,14.439,78.51c-5.082,0.031-8.466,3.434-8.466,8.53v76.8c0,5.12,3.413,8.533,8.533,8.533v59.733
				c0,23.893,18.773,42.667,42.667,42.667l92.16,0.853c9.387,0,17.92,3.413,24.747,10.24s9.387,15.36,9.387,24.747l-5.973,142.507
				c-0.853,6.827,1.707,13.653,6.827,18.773c5.12,5.12,11.947,7.68,18.773,7.68h100.693c7.68,0,13.653-2.56,18.773-8.533
				c4.267-5.12,6.827-11.947,6.827-18.773l-5.973-142.507c-0.853-9.387,2.56-17.92,9.387-24.747
				c6.827-6.827,15.36-10.24,24.747-10.24h92.16c23.893,0,42.667-18.773,42.667-42.667V203.8c5.12,0,8.533-3.413,8.533-8.533v-76.8
				c0-5.12-3.413-8.533-8.533-8.533h-3.907C478.658,84.488,487.423,36.069,508.374,13.507z M485.334,186.733h-460.8V127h460.8
				V186.733z M476.801,263.533c0,14.507-11.093,25.6-25.6,25.6l-92.16,0.853c-13.653,0-27.307,5.12-36.693,15.36
				c-10.24,10.24-15.36,23.893-14.507,37.547l5.973,142.507c0,1.707-0.853,4.267-2.56,5.973c-1.707,1.707-3.413,2.56-5.973,2.56
				H204.587c-2.56,0-4.267-0.853-5.973-2.56s-2.56-3.413-2.56-5.973l5.973-143.36c0-13.653-5.12-27.307-14.507-37.547
				c-9.387-9.387-23.04-15.36-36.693-15.36h-92.16c-11.491,0-20.833-6.963-24.224-17.067h24.224c5.12,0,8.533-4.267,8.533-8.533
				c0-5.12-3.413-8.533-8.533-8.533h-25.6v-17.067h42.667c5.12,0,8.533-3.413,8.533-8.533s-3.413-8.533-8.533-8.533H33.067V203.8
				h443.733V263.533z M411.094,109.933H33.067C32.214,70.68,27.094,42.52,16.854,23.747c-0.853-2.56,0-4.267,0-5.12
				s1.707-2.56,3.413-2.56h339.627c5.12,0,10.24,1.707,15.36,5.12c11.947,10.24,20.48,29.013,25.6,56.32
				c0.853,3.413,3.413,6.827,7.68,6.827s7.68-2.56,7.68-5.973c1.707-7.68,5.12-16.213,10.24-24.747
				c11.093-19.627,33.28-33.28,58.027-36.693c-15.36,26.453-21.333,66.56-12.8,93.013H411.094z"/>
		</g>
	</g>
</g>
<g>
</g>
<g>
</g>
<g>
</g>
<g>
</g>
<g>
</g>
<g>
</g>
<g>
</g>
<g>
</g>
<g>
</g>
<g>
</g>
<g>
</g>
<g>
</g>
<g>
</g>
<g>
</g>
<g>
</g>
</svg>
