<svg version="1.1" id="Layer_1" xmlns="http://www.w3.org/2000/svg" xmlns:xlink="http://www.w3.org/1999/xlink" x="0px" y="0px"	viewBox="0 0 491.52 491.52" width="20px" fill="#6c6c6c" style="enable-background:new 0 0 491.52 491.52;" xml:space="preserve"><g><g>	<path d="M206.9,70.16c-18.46-18.46-43-28.625-69.1-28.625c-26.11,0-50.65,10.165-69.1,28.625c-38.1,38.095-38.1,100.09,0,138.195		c18.45,18.46,42.99,28.625,69.1,28.625c26.1,0,50.64-10.165,69.1-28.625C245,170.25,245,108.255,206.9,70.16z M188.89,197.077		C174.763,209.59,156.83,216.5,137.8,216.5c-18.849,0-36.61-6.767-50.67-19.042V187.13c0-10.72,7.21-20.51,17.67-24.29l33,32.995		l33-32.995c10.57,3.825,18.09,13.76,18.09,24.175V197.077z M175.17,142.725l-10.2-3.015l-27.17,27.165l-27.17-27.165l-10.23,3.025		c-15.359,4.603-27.053,16.587-31.61,31.098c-14.461-28.932-9.702-65.097,14.39-89.193c14.59-14.59,33.98-22.625,54.62-22.625		c20.63,0,40.03,8.035,54.62,22.625c23.939,23.944,28.775,59.799,14.647,88.638C202.337,159.071,190.562,147.339,175.17,142.725z"		/></g></g><g><g>	<path d="M137.8,73.425c-18.92,0-34.32,15.395-34.32,34.32s15.4,34.32,34.32,34.32c18.92,0,34.32-15.395,34.32-34.32		S156.72,73.425,137.8,73.425z M137.8,121.585c-7.63,0-13.84-6.21-13.84-13.84s6.21-13.84,13.84-13.84s13.84,6.21,13.84,13.84		S145.43,121.585,137.8,121.585z"/></g></g><g><g>	<path d="M491.52,419.84V0H0v419.84h153.6v51.2h-40.96v20.48h266.24v-20.48h-40.96v-51.2H491.52z M20.48,20.48h450.56v317.44H20.48		V20.48z M317.44,471.04H174.08v-51.2h143.36V471.04z M20.48,399.36V358.4h450.56v40.96H20.48z"/></g></g><g><g>	<rect x="50.319" y="256" width="175.002" height="20.48"/></g></g><g><g><rect x="81.039" y="296.96" width="113.562" height="20.48"/></g></g><g><g><path d="M421.94,70.16c-18.46-18.46-43-28.625-69.1-28.625c-26.11,0-50.65,10.165-69.1,28.625c-38.1,38.095-38.1,100.09,0,138.195c18.45,18.46,42.99,28.625,69.1,28.625c26.1,0,50.64-10.165,69.1-28.625C460.04,170.25,460.04,108.255,421.94,70.16zM403.93,197.077c-14.127,12.513-32.06,19.423-51.09,19.423c-18.849,0-36.61-6.767-50.67-19.042V187.13c0-10.72,7.21-20.51,17.67-24.29l33,32.995l33-32.995c10.57,3.825,18.09,13.76,18.09,24.175V197.077z M390.21,142.725l-10.2-3.015l-27.17,27.165l-27.17-27.165l-10.23,3.025c-15.359,4.603-27.053,16.587-31.61,31.098c-14.461-28.932-9.702-65.097,14.39-89.193c14.59-14.59,33.98-22.625,54.62-22.625c20.63,0,40.03,8.035,54.62,22.625c23.939,23.944,28.775,59.799,14.647,88.638C417.377,159.071,405.602,147.339,390.21,142.725z"/></g></g><g><g><path d="M352.84,73.425c-18.92,0-34.32,15.395-34.32,34.32s15.4,34.32,34.32,34.32c18.92,0,34.32-15.395,34.32-34.32S371.76,73.425,352.84,73.425z M352.84,121.585c-7.63,0-13.84-6.21-13.84-13.84s6.21-13.84,13.84-13.84s13.84,6.21,13.84,13.84S360.47,121.585,352.84,121.585z"/></g></g><g><g><rect x="265.359" y="256" width="175.002" height="20.48"/></g></g><g><g><rect x="296.079" y="296.96" width="113.562" height="20.48"/></g></g></svg>
