<?xml version='1.0' encoding='iso-8859-1'?><svg version="1.1" xmlns="http://www.w3.org/2000/svg" viewBox="0 0 511 511" width="20px" fill="#6c6c6c" xmlns:xlink="http://www.w3.org/1999/xlink" enable-background="new 0 0 511 511"><g>  <path d="M471.5,100H367V82.609C367,48.086,338.914,20,304.391,20h-97.781C172.086,20,144,48.086,144,82.609V100H39.5   C17.72,100,0,117.72,0,139.5v312C0,473.28,17.72,491,39.5,491h432c21.78,0,39.5-17.72,39.5-39.5v-312   C511,117.72,493.28,100,471.5,100z M159,82.609C159,56.357,180.357,35,206.609,35h97.781C330.643,35,352,56.357,352,82.609V100h-17   V82.609C335,65.731,321.269,52,304.391,52h-97.781C189.731,52,176,65.731,176,82.609V100h-17V82.609z M320,100H191V82.609   C191,74.002,198.002,67,206.609,67h97.781C312.998,67,320,74.002,320,82.609V100z M471.5,476h-432C25.991,476,15,465.009,15,451.5   V346.449C21.739,351.795,30.25,355,39.5,355H80v32.5c0,12.958,10.542,23.5,23.5,23.5s23.5-10.542,23.5-23.5v-80   c0-12.958-10.542-23.5-23.5-23.5S80,294.542,80,307.5V340H39.5C25.991,340,15,329.009,15,315.5v-176   c0-13.509,10.991-24.5,24.5-24.5h432c13.509,0,24.5,10.991,24.5,24.5v176c0,13.509-10.991,24.5-24.5,24.5h-24   c-4.142,0-7.5,3.358-7.5,7.5s3.358,7.5,7.5,7.5h24c9.25,0,17.761-3.205,24.5-8.551V451.5C496,465.009,485.009,476,471.5,476z    M95,369.403c2.638,1.027,5.503,1.597,8.5,1.597s5.862-0.57,8.5-1.597V387.5c0,4.687-3.813,8.5-8.5,8.5s-8.5-3.813-8.5-8.5V369.403   z M112,347.5c0,4.687-3.813,8.5-8.5,8.5s-8.5-3.813-8.5-8.5v-40c0-4.687,3.813-8.5,8.5-8.5s8.5,3.813,8.5,8.5V347.5z"/>  <path d="m399.5,284c-12.958,0-23.5,10.542-23.5,23.5v32.5h-224.5c-4.142,0-7.5,3.358-7.5,7.5s3.358,7.5 7.5,7.5h224.5v32.5c0,12.958 10.542,23.5 23.5,23.5s23.5-10.542 23.5-23.5v-80c0-12.958-10.542-23.5-23.5-23.5zm-8.5,23.5c0-4.687 3.813-8.5 8.5-8.5s8.5,3.813 8.5,8.5v40c0,4.687-3.813,8.5-8.5,8.5s-8.5-3.813-8.5-8.5v-40zm8.5,88.5c-4.687,0-8.5-3.813-8.5-8.5v-18.097c2.638,1.027 5.503,1.597 8.5,1.597s5.862-0.57 8.5-1.597v18.097c0,4.687-3.813,8.5-8.5,8.5z"/>  <path d="m207.5,323h96c4.142,0 7.5-3.358 7.5-7.5s-3.358-7.5-7.5-7.5h-96c-4.142,0-7.5,3.358-7.5,7.5s3.358,7.5 7.5,7.5z"/></g></svg>
