<?xml version="1.0" encoding="iso-8859-1"?>
<!-- Generator: Adobe Illustrator 18.0.0, SVG Export Plug-In . SVG Version: 6.00 Build 0)  -->
<!DOCTYPE svg PUBLIC "-//W3C//DTD SVG 1.1//EN" "http://www.w3.org/Graphics/SVG/1.1/DTD/svg11.dtd">
<svg version="1.1" id="Capa_1" xmlns="http://www.w3.org/2000/svg" xmlns:xlink="http://www.w3.org/1999/xlink" x="0px" y="0px"
	 viewBox="0 0 250.491 250.491" width="20px" fill="#6c6c6c" style="enable-background:new 0 0 250.491 250.491;" xml:space="preserve">
<g>
	<path d="M245.491,85.341c-2.761,0-5,2.238-5,5v3c0,2.762,2.239,5,5,5s5-2.238,5-5v-3C250.491,87.579,248.252,85.341,245.491,85.341
		z"/>
	<path d="M225.571,0.001h-103.49c-13.741,0-24.92,11.179-24.92,24.92v72.243H24.917C11.178,97.164,0,108.342,0,122.082v16.259
		c0,2.762,2.239,5,5,5c2.761,0,5-2.238,5-5v-16.259c0-8.226,6.692-14.918,14.917-14.918h103.491c8.225,0,14.917,6.692,14.917,14.918
		v103.491c0,8.226-6.692,14.917-14.917,14.917H24.917c-8.226,0-14.917-6.691-14.917-14.917v-64.232c0-2.762-2.239-5-5-5
		c-2.761,0-5,2.238-5,5v64.232c0,13.739,11.178,24.917,24.917,24.917h103.491c13.74,0,24.917-11.178,24.917-24.917v-72.242h72.245
		c13.741,0,24.92-11.18,24.92-24.921v-19.736c0-2.762-2.239-5-5-5s-5,2.238-5,5v19.736c0,8.228-6.693,14.921-14.92,14.921h-72.245
		v-21.249c0-13.74-11.178-24.918-24.917-24.918h-21.248V24.921c0-8.227,6.693-14.92,14.92-14.92h103.49
		c8.227,0,14.92,6.693,14.92,14.92v49.753c0,2.762,2.239,5,5,5s5-2.238,5-5V24.921C250.491,11.179,239.311,0.001,225.571,0.001z"/>
	<circle cx="41.496" cy="136.527" r="9.749"/>
	<circle cx="41.496" cy="173.577" r="9.749"/>
	<circle cx="41.496" cy="210.627" r="9.749"/>
	<circle cx="111.996" cy="136.527" r="9.749"/>
	<circle cx="111.996" cy="173.577" r="9.749"/>
	<circle cx="111.996" cy="210.627" r="9.749"/>
	<circle cx="173.826" cy="76.665" r="9.749"/>
</g>
</svg>
