<?xml version="1.0" encoding="utf-8"?>
<!-- Generator: Adobe Illustrator 19.1.0, SVG Export Plug-In . SVG Version: 6.00 Build 0)  -->
<svg version="1.1" id="Layer_1" xmlns="http://www.w3.org/2000/svg" xmlns:xlink="http://www.w3.org/1999/xlink" x="0px" y="0px"
	 viewBox="0 0 64 64" width="20px" fill="#6c6c6c" enable-background="new 0 0 64 64" xml:space="preserve">
<g id="Hand-watch">
	<path d="M50.9794502,27.8369007H47.680748c-1.0224991-4.3155003-3.5883865-8.0314007-7.0889969-10.5369015V1
		c0-0.5527-0.4472008-1-1-1H20.6122494c-0.5526981,0-1,0.4473-1,1v16.3001003
		C15.0254507,20.5830002,12.0205507,25.9417,12.0205507,32c0,6.0583992,3.0049,11.417099,7.5916986,14.7000008V63
		c0,0.5527992,0.4473019,1,1,1h18.9795017c0.5527992,0,1-0.4472008,1-1V46.7000999
		c3.155098-2.2582016,5.5644989-5.4928017,6.7565002-9.2714005h3.6311989c0.5527992,0,1-0.4472008,1-1v-7.5917988
		C51.9794502,28.2842007,51.5322495,27.8369007,50.9794502,27.8369007z M21.6122494,2h16.9795017v14.0445995
		c-2.53339-1.3534994-5.4218025-2.1265993-8.4892006-2.1265993c-3.0678005,0-5.9566002,0.7730999-8.4903011,2.1267996V2z
		 M38.5917511,62H21.6122494V47.9552002c2.5337009,1.3536987,5.4225006,2.1268997,8.4903011,2.1268997
		c3.0673981,0,5.9558105-0.7731018,8.4892006-2.1267014V62z M30.1025505,48.0820999
		c-8.8671875,0-16.0820007-7.214901-16.0820007-16.0820999s7.2148123-16.0820007,16.0820007-16.0820007
		c8.8671989,0,16.0809975,7.2147989,16.0809975,16.0820007S38.9697495,48.0820999,30.1025505,48.0820999z M49.9794502,35.4286995
		H48.183548v-5.5917988h1.7959023V35.4286995z"/>
	<path d="M37.6191483,23.7012005l-6.5165977,6.5175991V21.2451c0-0.5527-0.4473-1-1-1c-0.5528011,0-1,0.4473-1,1v11.387701
		c0,0.4043007,0.2440987,0.7695999,0.6171989,0.9239006c0.1240005,0.0516968,0.2539005,0.0760994,0.3828011,0.0760994
		c0.2596989,0,0.5156002-0.1015015,0.7069988-0.2929001l8.2236004-8.2246017c0.3907013-0.3906994,0.3907013-1.0234985,0-1.4140987
		C38.6425514,23.3106003,38.0097504,23.3106003,37.6191483,23.7012005z"/>
</g>
</svg>
